<?xml version="1.0" encoding="utf-8"?>
<!-- Generator: Adobe Illustrator 27.7.0, SVG Export Plug-In . SVG Version: 6.00 Build 0)  -->
<svg version="1.1" id="Layer_1" xmlns="http://www.w3.org/2000/svg" xmlns:xlink="http://www.w3.org/1999/xlink" x="0px" y="0px"
	 viewBox="0 0 1000 1000" style="enable-background:new 0 0 1000 1000;" xml:space="preserve">
<g id="EJdVoy_00000136411469089667441940000013821975991609853613_">
	<g>
		<path d="M501,999.5c-5.7,0.4-11.3,0.6-17,0.5c-95.7-0.5-218.6-9.3-228.3-12.7c-15.3-5.4-24.4-13.2,6.4-22
			c11.3-3.2,21.6-4,32.7,1.3c17.2,8.2,35,15.2,52.6,22.7c2,0.9,4,2,6.2,1.3c10.2-3.3,20.4-6.6,30.8-10c-1.8-2.6-4.2-3.6-6.2-4.9
			c-25.3-16-45.1-37.4-61.3-62.2c-20.1-30.8-30.9-64.8-36.7-100.9c-3.6-22.5-2.4-44.8-1.8-67.2c0.5-23.1,5-45.6,9.1-68.1
			c0.2-1.3,0.8-2.6,0.1-3.9c-0.8-1.5-1.9-2.4-3.6-1.9c-1.7,0.5-1.6,1.8-1.2,3.2c0.3,0.9,0.7,1.9,0.8,2.9c0.8,6.3-1.2,8.6-7.5,8.4
			c-41.4-1.3-81.4-9.3-118.7-27.8c-12.9-6.4-25.1-14.1-33.9-26.2c-10.6-14.6-7.1-31,3.7-43.1c12.6-14.1,28.8-22.9,46-29.8
			c31.5-12.5,64.5-19.2,98.2-22.4c30.5-2.9,60.4,0.9,90.2,7.1c27.3,5.6,53.8,15,78.3,28.3c12.2,6.6,23.8,14.1,33.6,24.2
			c7.6,7.8,13.1,16.9,15,27.5c2,11.3-2.3,20.9-9.9,29.5c-10,11.3-23.2,16.9-36.8,21.9c-19.5,7.1-39.8,9.6-60.3,12.3
			c-15.9,2.1-31.7,2.3-47.6,2.3c-6.3,0-7.1-1.1-5.2-7c0.3-0.9,0.8-1.8,1.1-2.8c0.7-2.4-0.7-4.2-2.6-4.7c-2-0.5-1.9,2-2.1,3.2
			c-2.5,16.5-5.2,33-7.3,49.5c-2.6,20.8-2,41.8,0.5,62.3c4.2,34.4,12.7,67.9,30.3,98.5c16.9,29.4,38.7,54,66.4,73.7
			c2.4,1.7,5.5,2.2,8.3,1.3c7.3-2.3,14.6-4.4,21.9-6.7c3.5-1.1,6.8-0.8,10.1,0.7c7,3.1,14.1,5.9,21.2,8.7c4.8,1.9,18.7-3.7,21-8.4
			c1.2-2.4-1.2-3.2-2.4-4.3c-9.5-8.5-18.9-17.1-27.5-26.5C452,910.4,440,891.1,430.8,870c-1-2.4-1.9-5-2.7-7.5
			c-2.4-7-4.6-13.8-9.9-19.9c-10.2-11.8-15.2-26.3-12.9-41.9c2.4-17.3,15.4-30.5,33.6-29.2c6.2,0.4,11.6,2.9,14.7,8.8
			c0.6,1.2,1.8,2.5,1,3.7c-3,4.6-5.2,10.4-10.1,13.1c-3.7,2-5.8,4.4-6.5,8c-1.7,8.2,0.8,15.3,6.4,21.5c0.8,0.9,2,1.8,3,1
			c1.6-1.2,0-2.3-0.6-3.3c-3-4.9-5.3-10-4.7-15.9c0.3-2.5,0.5-5.2,4.2-4.8c2.1,0.2,2.8-1.5,3.5-3c1.2-2.6,3.1-4.7,5.1-6.7
			c1.5-1.5,2.9-2.6,5.2-1.5c3,1.4,4.7-0.4,4.7-3.1c0.2-6.1,4.5-9.7,7.8-14c1.7-2.2,3.6-1.8,5.5,0.9c2,2.8,4.9,4.8,8.1,6.2
			c3,1.3,2.8,3.1,1.4,4.9c-2,2.4-4.1,4.8-6.3,7c-1.8,1.8-1.7,3.1,0.1,5c2.3,2.4,4.3,5.1,6,7.9c2.2,3.6,3.5,7.9,1.9,11.9
			c-7.1,17.6-3.7,34.9,1.9,51.9c7.4,22.5,19.9,42.1,36.1,59.4c3.5,3.7,6,3.6,9.5,0.4c11.9-10.9,22.6-22.9,32-35.9
			c1.3-1.9,1-3.1-0.1-4.8c-5.7-8.7-5.2-17.9-1.4-27c6.7-15.8,15.9-30.2,25.6-44.2c6.5-9.4,13.9-18.2,23.4-24.9
			c7.1-4.9,14.8-9,23.2-11.3c18.3-5,39,7,45.8,26.1c5.3,14.9-0.1,27.5-8.1,39.7c-1.6,2.4-3.4,4.7-5.2,7.2c2,0.9,2.8-0.2,3.5-0.9
			c9-10.1,15.3-21.4,14.6-35.3c-0.7-15.2-7.3-27.2-21.3-33.9c-6.4-3.1-8.3-7.3-7.6-13.8c0.8-7.6,2.6-14.3,11.2-16.9
			c4.2-1.3,6.7-10.9,4.1-14.9c-6.7-10.3-12.4-21.1-16-33c-0.6-2.1-1.3-4.1-1.7-6.2c-1.3-7.1,2.5-10.2,9.6-9.1
			c4.9,0.8,8.5,2.7,11.6,6.5c7,8.4,16.7,5.7,25.6,5.3c13.5-0.7,25.8-5.6,37.3-12.7c4.7-2.9,9.3-0.6,10.2,4.9
			c1.1,7.3-1.4,13.4-7.3,17.9c-2,1.5-4.1,2.8-6.2,4.2c-1.1,0.8-2.3,1.6-1.3,3.2c0.9,1.4,2.1,1.2,3.5,0.7
			c10.8-4.1,17.8-18.8,14.1-29.6c-1-3-2-6.1-4.2-8.4c-2.5-2.8-2.2-4.5,1-6.6c8.1-5.3,15.3-11.6,21.4-19.2
			c6.2-7.7,10.6-16.2,13.4-25.6c-3.8,5.5-6.8,11.6-10.7,17.1c-17.4,24.4-41.5,37-70.9,39.9c-23,2.2-45.7,0.9-67.2-8.9
			c-9.3-4.2-17.9-9.5-24.5-17.5c-1-1.2-2.9-2.7-1.6-4.2c1.7-1.8,2.8,0.7,4,1.5c2.8,2,5.4,4.3,8.7,5.6c0.7-2.3-0.9-3.1-1.8-4.1
			c-5.3-5.5-10.7-10.9-16-16.3c-0.9-0.9-1.8-2.3-3.3-1c-1.1,1-0.1,2.1,0.4,3.1c3.1,6,2.9,6.6-2.3,10.5c-4.2,3.2-8.2,6.3-14.3,5.6
			c-3.4-0.4-6.1,3.1-8.9,5c-1.4,1-0.3,2.4,0.3,3.6c6.9,14.6-4.9,33.7-21.4,34.1c-3.4,0.1-4.5,2.3-6.1,4.4
			c-8.8,11.4-16.7,23.5-26.5,34.2c-5.1,5.6-10.9,10.2-17.8,13.2c-2.8,1.2-4.3,2.2-1.6,5.2c2.9,3.1,2.8,7,1.2,10.8
			c-0.4,1-1,1.9-1.6,2.8c-7,10.1-9.1,10.8-18,3.1c-9.5-8.2-20-15.4-27.1-26.1c-3.6-5.5,0.5-14.4,7-14.4c3.5,0,4.8-1.6,5.9-4.1
			c4.7-10.6,9.4-21.2,14.1-31.8c8.1-18.1,16-36.3,24.3-54.4c2.7-5.9,3.5-5.9,8.8-2.2c21.4,14.7,43.5,14,63.9-2.1
			c2.2-1.7,4.3-3.5,5.1-6.7c-2.6,1.8-5.4,3.5-7.9,5.4c-33.6,25-75.3,0.7-81.4-29.7c-2.9-14.4-2.8-28.3,0-42.7
			c3-15.7,9.5-29.9,17.1-43.7c3.1-5.5,6.8-10.4,12.4-14c-5.3,13.4-14.1,25.5-15.1,41.4c3.6-1.9,5.4-4.4,7.6-6.6
			c8.9-9.2,19.2-16,32.5-16.2c19.7-0.4,38.3,13.6,44.3,32.4c6.5,20.3,2.1,38.1-12,53.8c-3.5,3.9-3.4,4.7,1.8,6
			c9.1,2.3,18.6-1.6,25.1-11.9c5.4-8.6,7.3-18.4,8.8-28.2c0.4-2.6,0.3-5.3-3.5-7.5c1.1,6.8,0.6,12.8-1.4,18.7
			c-2.6,7.8-5.7,15.1-11.8,21c-3.4,3.2-7.2,4.5-11.7,4.5c-1.1,0-2.5,0.3-3.2-0.8c-0.9-1.5,0.6-2.4,1.4-3.4
			c8.5-10.6,13.1-22.5,13.2-36.1c0-4.5-0.7-9-2.2-13.2c-1.3-3.7,0.1-4,3.2-3.4c8.2,1.8,14.9,6.3,21.3,11.4c8.7,7,16.2,15.2,24,23.1
			c3,3.1,6.2,4.7,10.6,5.5c19.1,3.6,38.3,6,57.5,8.9c4.8,0.7,9.6,0.9,14.4,1.4c1.9,0.2,3.6-0.2,5.2-1.3c8.8-6,16.5-12.9,23-21.6
			c9.8-13.2,9.4-27.7,6.1-42.2c-11.5-50-41.6-83.5-90.8-99.6c-19.4-6.3-39.5-8.1-59.5-10.9c-15.5-2.2-30.5-6.5-44.9-12.8
			c-4.4-1.9-8.7-4.1-12.5-7.2c-7.8-6.4-9-12.8-3.4-21.2c4.2-6.4,9.4-12.1,15.6-16.6C598.6,362,627,349,657.3,340
			c23.9-7.1,48.2-11.6,73.2-13.2c10.3-0.7,20.5-1,30.7-0.4c33.3,2,66,7.2,96.1,22.7c11.1,5.7,20.1,13.5,21.8,27.1
			c0.9,6.9-2.1,12.2-6.2,17.1c-8.6,10.2-19.8,16.5-32,21.2c-29.6,11.1-60.5,16.1-91.5,21.1c-1.6,0.3-3.3,0.1-5,0.3
			c-3.4,0.5-5.5-0.6-5.9-4.2c-0.1-0.8-0.3-1.7-0.8-2.4c-0.7-1.1-0.4-3.7-2.4-3.1c-1.8,0.5-0.8,2.5-0.4,3.9c3.8,13,3.2,26.5,4.3,39.8
			c0.4,4.2,2.4,6.7,5.2,9.1c11.1,9.5,21.4,19.9,29.9,31.8c8.6,11.9,16.4,24.1,20,38.5c0.8,3.3,2.1,5.4,5.4,6.1
			c4.7,1.1,11.6,4.2,15.2,7.2c14.1,11.8,22.1,27.2,26.7,44.6c0.6,2.2,0.7,4.4-0.2,6.8c-1.1,3.2-0.7,6.6-0.1,9.8
			c4.4,22.7,1.3,44.2-11.5,63.7c-7.2,11-16.5,19.5-31,19.5c-3.7,0-6.8-1.4-10-2.8c-2.9-1.3-3.9-0.2-4.6,3.6c-0.7,3.8-1.9,7.5-3.4,11
			c-1.8,4.2-2.2,7.8,0.1,11.7c2.3,4,2.6,8.5,0.8,12.9c-3.5,9-8.9,16.2-18.1,20c-2,0.9-3.2,2.2-3.9,4.2c-1.7,4.5-3.4,9-6.3,12.9
			c-1.5,2-0.4,3.4,1.1,4.7c7.3,6.2,6.5,10.9,0.6,19c-4.1,5.5-8,11.7-16.3,12.6c-3.2,0.3-5,4-6.7,6.9c0.5,0.3,0.8,0.6,0.9,0.5
			c17.1-10,35.4,4.1,40,21.7c2.8,10.7,1.8,20.8-1.8,31.1c-5.4,15.1-12.6,29.2-23.3,41.3c-2.3,2.7-4.9,5-8.7,5.3
			c-1.7,0.1-2.7,1.2-3.6,2.4c-5.2,6.9-11.4,12.9-17.6,18.9c-2.4,2.3-2.4,3.4,0.9,4.7c22.2,8.9,15.6,20.5,2.3,28.7
			c-7.7,4.8-16.6,7.4-25.7,8L501,999.5z M574.7,981.9c1.1-0.4,2.2-0.7,3.3-1.1c23.5-9,46.8-18.6,70.6-26.9
			c11.5-4,19.5-10.6,24.6-21.3c1.1-2.2,2.7-4.2,3.6-6.5c2.6-6.5,6.6-12.5,4.7-20.2c-1.4-5.8,1.9-10.5,5.6-14.7
			c0.9-1.1,2.9-2.1,1.9-3.6c-0.6-1-2.6-1.2-4-1.5c-2.1-0.5-3.3,1.1-4.5,2.5c-2.8,3.1-5.5,6.2-8.4,9.1c-2.4,2.4-4.1,4.9-3.9,8.6
			c0.2,3.1-0.7,6.2-2.8,8.8c-9.4,11.7-21.6,19.3-35.7,24.2c-3.2,1.1-6.1,0.5-8.1-2.1c-2.3-2.9-4-2.1-6.5-0.3
			c-17.4,12.2-35.6,23-55.2,31.4c-2.3,1-6.3,1-6.4,3.7c-0.1,2.2,3.8,2.6,6,3.5C564.5,977.8,569.3,980.7,574.7,981.9z M570.6,581.6
			c0-8.1-4.4-14.8-10.9-17c-7.1-2.4-14.5,0-19.4,6.2c-5.9,7.4-6.5,16-4.5,24.5c1.5,6.5,5.9,11.6,13.2,12.6c7.3,1,12.3-2.7,16.3-8.4
			C569.1,594.1,570.1,587.7,570.6,581.6z M634.7,811.4c-3.1,0.3-6.6,1.3-9.5,3.7c-12.6,10-21.9,22.9-30.8,36c-0.9,1.3-1.9,3-0.7,4.6
			c1.4,1.7,3.3,1.1,5.1,0.6c1.4-0.4,2.8-0.9,4.2-1.6c10.7-5.1,20.5-11.6,29.4-19.2c4.4-3.8,8.5-8,10.6-13.5
			C645.4,815.3,642.4,811.3,634.7,811.4z M804.1,645.5c-0.3,5.8-0.1,11.2,2.2,16.3c1.4,3.1,3.5,6,7.1,6.3c3.3,0.3,5.3-2.4,6.8-5
			c6.9-12.2,7.8-24.7,2-37.5c-1.3-2.8-2.9-5.1-6.6-5.1c-3.8,0-5.6,2.3-7.1,5.2C805.3,632,803.3,638.6,804.1,645.5z M707.5,429.1
			c-2.1,1.2-2.4,2.3-2.7,3.5c-1.7,7.7-1.7,7.7-9.7,8.2c-0.8,0.1-1.7,0.1-2.5,0.2c-0.8,0.1-1.8,0.2-2,1.1c-0.2,1,0.7,1.5,1.5,1.8
			c5.6,1.8,10.4,5.1,15.3,8c2.4,1.4,3.4,1,3-1.8C709.5,443.2,708.5,436.4,707.5,429.1z M728.8,839.1c-5.4,9.1-10.2,18.5-18.5,25.5
			c-0.7,0.6-1.7,1.4-0.7,2.5c0.6,0.6,1.6,0.3,2.3-0.2c1.4-0.9,2.7-1.9,3.9-3C722.8,857,726.6,848.5,728.8,839.1z"/>
		<path d="M479.8,281.8c-5,0-10-0.1-14.9,0c-3,0-4.8-1-4.7-4.3c0.2-6.4-2-12.4-3.1-18.5c-1.2-7-6.4-11.1-12.6-13.7
			c-13.5-5.6-27.6-5.7-41.6-2.7c-10.4,2.2-14.1,10.7-10,20.6c2,5,0.3,9.8-0.2,14.7c-0.2,2.2-2.6,1.3-4.2,1.1
			c-22.8-2.4-45.3-6.6-67.5-12.3c-30.5-7.9-60.3-17.4-87.2-34.3c-15.6-9.9-29-22.1-37.9-38.6c-9.2-17.1-8.9-34.5-2.2-52.2
			c10.7-28.4,31.1-49,54.6-66.8c27.9-21.2,58.7-37.3,90.7-51.5c23.7-10.5,48.7-16.6,74.1-20.5c11.2-1.7,22.6-3.6,34.1-3.1
			c26.8,1,53,5.7,78.3,14.9c44.5,16.2,83.2,41.7,118.5,72.6c17.2,15.1,33,31.8,44.5,51.9c8.5,14.9,12.8,31,11.9,48
			c-0.8,14.8-7.5,27.6-17.3,38.8c-12.8,14.7-29.3,23.6-47.1,30.5c-24.4,9.5-49.7,15.3-75.6,18.9c-16,2.3-31.9,3.6-47.9,4.6
			C501.6,280.5,490.7,282.2,479.8,281.8z"/>
		<path d="M616.3,496.5c-4.4,5.3-3.2,9.8-1.8,14c3.4,10.2,10.3,17.2,20.6,20.7c16.6,5.6,32.1,4.3,45.5-7.9c4.5-4.1,6.6-9.4,6.8-15.5
			c0.8-20.2-9.6-33.3-26.9-42c-1.8-0.9-4-1.4-5.5-3.1c1.9-2.2,3.9-1,5.7-0.7c21.5,4.5,37.2,21,40.6,42.5
			c1.9,11.9-6.7,28.7-18.8,34.9c-27,13.9-55.6,8-74-16.6c-6.3-8.4-9.4-18.8-3.4-29.4c1.3-2.3,0-3.5-1.9-4.2
			c-10.5-3.8-21.2-7-32.5-5.5c-4.1,0.5-7,3.7-9.9,6.2c-2.4,2.1-4.5,4.4-6.9,6.4c-2,1.7-3.7,0.6-5.3-0.8c-1.9-1.6-1.3-3.2,0.2-4.6
			c0.4-0.3,0.7-0.7,1-1.1c5-5.9,4.7-7.3-2.2-10.2c-42.8-17.7-78.1-45.5-107.5-80.8c-21.1-25.3-35.8-54-41.4-86.9
			c-1.8-10.3-2.2-20.7-2.2-31.1c0-5.1,1.1-10.1,2-15.1c0.4-2.5,0.2-4.3-2.4-5.1c-3.1-1-3-3-2-5.5c2.5-6.2,7.6-9.4,13.7-10.4
			c12.7-2.2,25.2-1.3,36.8,5c6.9,3.8,11.3,9.2,10.9,17.9c-1.7,33.9,11.3,63.3,30.4,90c30.1,42,70.1,71.9,118.1,91
			c4.4,1.8,9.3,1,13.8,0.7c8.5-0.6,15.9,2.4,23.4,5.6c1.1,0.4,2.4,0.8,2.5,2.1c0.1,1.4-1.3,1.7-2.3,2.2c-1.5,0.8-3,1.4-4.5,2.1
			c-1,0.5-2.8,0.3-2.6,1.7c0.2,1.8,2,2.1,3.5,2c6.3-0.1,12.5,0.1,18.7,2c13.6,4.2,29.1,21.7,28.5,36.1c-0.4,8.9-4,15.5-10.8,20.7
			c-14.5,11-38.4,9.2-50.8-3.6C617.3,514.1,614.4,506.7,616.3,496.5z"/>
		<path d="M458.9,757.2c0.5,0.3,1.2,0.4,1.6,0.9c3.5,3.5,7,7,10.4,10.6c1.6,1.7,0.8,3.4-0.5,4.8c-2.5,2.6-5.1,5.1-7.7,7.6
			c-2.7,2.6-5,2.1-6.5-1.3c-2.5-5.8-2.7-11.8-1.4-17.9C455.1,759.7,456.4,757.9,458.9,757.2z"/>
		<path d="M691.8,568.9c-0.1,4.6-4.3,9.5-8,9.5c-3.8,0-8.3-5.1-8.3-9.2c0.1-4.2,4.3-8.4,8.4-8.3C688,560.8,691.9,564.9,691.8,568.9z
			"/>
		<path d="M598.5,513.3c-0.1,3.5-4.1,7.2-7.8,6.9c-3.4-0.3-5.5-2.3-5.6-5.8c-0.1-3.9,3.7-7.8,7.5-7.9
			C595.5,506.4,598.5,510,598.5,513.3z"/>
	</g>
</g>
</svg>
